# xmcd
#
# Track frame offsets:
#	150
#	12006
#	22239
#	31841
#	42514
#	54474
#	64835
#	76529
#	86516
#	99392
#	112464
#	126683
#	138056
#	147001
#	162462
#
# Disc length: 2295 seconds
#
# Revision: 1
# Processed by: cddbd v1.5.1PL0 Copyright (c) Steve Scherf et al.
# Submitted via: audiograbber 1.83.01
#
DISCID=c908f50f
DTITLE=Roger Miller - CB90126
DYEAR=1900
DGENRE=Karaoke Country
TTITLE0=King Of The Road
TTITLE1=Chug-A-:Lug
TTITLE2=Dang Me
TTITLE3=You Can't Rollerskate In A Buffalo Herd
TTITLE4=Engine Engine #9
TTITLE5=One Dyin' and A Buryin'
TTITLE6=Kansas City Star
TTITLE7=England Swings
TTITLE8=Husbands and Wives
TTITLE9=Walkin' In Sunshine
TTITLE10=Little Green Apples
TTITLE11=When Two Worlds Collide
TTITLE12=Do-Wacka-Do
TTITLE13=Loving Her Was Easier
TTITLE14=My Uncle Used To Love Me But She Died
EXTD=Chartbusters
EXTT0=
EXTT1=
EXTT2=
EXTT3=
EXTT4=
EXTT5=
EXTT6=
EXTT7=
EXTT8=
EXTT9=
EXTT10=
EXTT11=
EXTT12=
EXTT13=
EXTT14=
PLAYORDER=
